<?xml version="1.0" encoding="UTF-8" standalone="no"?>
<svg
   xmlns:dc="http://purl.org/dc/elements/1.1/"
   xmlns:cc="http://creativecommons.org/ns#"
   xmlns:rdf="http://www.w3.org/1999/02/22-rdf-syntax-ns#"
   xmlns:svg="http://www.w3.org/2000/svg"
   xmlns="http://www.w3.org/2000/svg"
   xmlns:sodipodi="http://sodipodi.sourceforge.net/DTD/sodipodi-0.dtd"
   xmlns:inkscape="http://www.inkscape.org/namespaces/inkscape"
   viewBox="0 0 128 128"
   version="1.1"
   id="svg4"
   sodipodi:docname="icon.svg"
   width="128"
   height="128"
   inkscape:version="0.92.3 (2405546, 2018-03-11)"
   inkscape:export-filename="/var/lib/odoo/lolitasyl/addons/trey-addons/website_fancybox/static/description/icon.png"
   inkscape:export-xdpi="96"
   inkscape:export-ydpi="96">
  <metadata
     id="metadata10">
    <rdf:RDF>
      <cc:Work
         rdf:about="">
        <dc:format>image/svg+xml</dc:format>
        <dc:type
           rdf:resource="http://purl.org/dc/dcmitype/StillImage" />
        <dc:title></dc:title>
      </cc:Work>
    </rdf:RDF>
  </metadata>
  <defs
     id="defs8" />
  <sodipodi:namedview
     pagecolor="#ffffff"
     bordercolor="#666666"
     borderopacity="1"
     objecttolerance="10"
     gridtolerance="10"
     guidetolerance="10"
     inkscape:pageopacity="0"
     inkscape:pageshadow="2"
     inkscape:window-width="1920"
     inkscape:window-height="1025"
     id="namedview6"
     showgrid="false"
     inkscape:zoom="1.4907002"
     inkscape:cx="-77.02081"
     inkscape:cy="-151.74735"
     inkscape:window-x="1920"
     inkscape:window-y="27"
     inkscape:window-maximized="1"
     inkscape:current-layer="svg4" />
  <path
     d="m 27.838909,45.316901 c -1.98327,0.214408 -4.50256,3.323318 -5.413793,4.556162 -0.482417,0.804028 -0.911232,1.447251 -1.929668,3.430522 -2.036873,0.107204 -4.609764,0.536019 -4.50256,1.60806 0.160805,2.14407 1.822464,1.60805 3.216114,1.39365 -0.214408,1.07203 -4.877773,11.2564 -4.127347,12.97166 0.589621,1.07204 1.608057,0.96483 2.304882,0.75042 a 1.8224648,1.8224648 0 0 0 0.375213,-0.69682 c 0.214408,-0.53602 4.395357,-13.23967 4.77057,-13.18607 0.321611,-0.32161 3.430522,-0.64322 4.180949,-0.85763 0.911232,-0.37521 0.964834,-1.822464 0.107204,-2.304882 -0.536019,-0.321611 -1.715261,0 -2.626494,0.0536 0.964835,-2.304882 3.64493,-5.36019 4.180949,-5.038579 0.375213,0.375214 -0.911232,2.358484 -1.018436,2.840901 0,0.696825 0.428815,0.857631 0.804028,1.072038 0.589621,0.26801 1.447252,0.0536 2.036873,-0.696825 0.643223,-0.804028 1.179242,-2.519289 1.340047,-3.537725 0,-2.144076 -1.393649,-2.626494 -3.644929,-2.358484 z m 55.317166,1.072038 c -0.643223,0.536019 -5.038579,11.738816 -6.700238,16.241376 -0.375213,1.28645 -0.964834,3.96654 0.428815,5.521 1.715261,1.71526 5.092181,0.85763 7.611471,-1.87607 0.964834,-0.85763 1.768863,-1.87607 2.412086,-2.9481 0.804028,-1.39365 1.393649,-2.8409 1.768862,-4.28816 1.179242,-3.96654 0.375214,-5.252983 -2.358483,-5.681798 -1.715261,-0.107204 -2.358484,0.536019 -3.484124,1.340047 0.85763,-2.358483 2.519289,-4.824171 2.894503,-7.397063 -0.214408,-1.072038 -1.715261,-1.447251 -2.572892,-0.911232 z M 53.46062,58.931785 c -1.554456,2.7337 -5.574598,7.82588 -6.432229,7.50427 -0.804029,-0.10721 0.321611,-2.6265 0.804029,-3.80574 0.85763,-2.41208 3.323318,-6.32502 3.001706,-7.45066 -0.375213,-1.500857 -1.661659,-2.036876 -2.894503,-1.822468 -2.680095,0.750426 -3.430521,2.465688 -4.770569,4.073748 0.268009,-1.07204 0.85763,-2.30489 0.964834,-2.894506 0,-1.768863 -2.626493,-1.768863 -3.055308,-0.375214 l -1.018437,2.94811 c -1.608057,4.82417 -2.572891,6.27142 -3.216114,7.12905 -0.696825,0.85763 -2.036872,2.68009 -3.001707,1.82246 -1.232843,-1.55445 2.787299,-8.25469 4.020143,-11.792416 0.107204,-1.340048 -1.98327,-1.822465 -2.465687,-0.482417 l -0.428816,0.804029 A 1.5008533,1.5008533 0 0 0 33.78872,53.357187 c -1.232843,-0.26801 -2.25128,0.375213 -2.948104,0.750426 -1.608057,0.964832 -2.680096,2.304882 -3.591328,3.484122 -2.144076,3.26972 -4.341755,6.21782 -3.966541,9.70195 a 2.6800953,2.6800953 0 0 0 1.608057,2.03687 c 0.536019,0.21441 1.232844,0.16081 2.036873,-0.16081 1.608057,-0.53602 3.162512,-2.51929 4.395356,-3.85933 -0.26801,1.34004 0,2.7873 0.85763,3.37692 1.39365,0.91123 3.216115,0.2144 4.609764,-0.96484 0.214408,1.39365 0.964834,1.50086 1.822465,1.39365 1.286446,-0.26801 1.179242,-1.01843 1.608057,-2.46569 0.696825,-1.60805 1.340048,-3.32331 2.144076,-4.82417 l 1.500854,-1.98327 c 1.179242,-1.44725 3.216114,-3.48412 3.484123,-3.05531 0.428816,0.26801 -1.286445,2.41209 -1.768862,3.48413 -0.911233,2.03687 -1.768863,4.39535 -1.768863,5.89621 0.160805,2.68009 0.643223,2.8409 2.144076,3.0017 2.572891,0.21441 4.288152,-1.60805 5.89621,-3.64493 0,1.87607 1.072038,3.00171 2.519289,3.37692 1.12564,0.32162 2.572892,0 3.591328,-0.2144 1.98327,-0.85763 3.644929,-2.19768 5.199385,-3.48413 -0.804029,3.96654 1.608057,5.19939 4.824171,2.94811 0.589621,-0.48242 1.072038,-0.96484 1.554455,-1.55446 -0.321611,1.60806 -0.696825,2.8409 -1.179242,4.28815 -2.787299,0.48242 -5.038579,0.75043 -7.504266,1.39365 -1.822465,0.37522 -3.591328,1.07204 -5.145783,2.09048 -6.432229,5.25299 1.179242,9.86275 5.520996,7.93308 3.698531,-1.17924 6.217821,-4.34175 8.254693,-7.23626 l 1.072038,-1.87606 c 3.162513,-0.53602 9.27313,-0.37522 10.452372,-0.85763 1.072038,-0.53602 0.85763,-1.92967 0,-2.25128 -1.232844,-0.53602 -7.182655,0.1072 -9.433935,0.42881 0.804028,-2.7873 1.608057,-5.6282 2.680095,-8.20109 0.804028,-2.51929 2.304882,-4.93138 3.001707,-7.28986 0.160805,-0.85763 0,-1.500853 -0.750427,-1.822464 -1.179242,-0.26801 -1.768863,0.26801 -1.929669,0.643223 -2.144076,5.038581 -3.216114,6.968251 -4.395356,8.469101 -1.447251,1.71526 -2.144076,2.35848 -3.10891,3.32332 -0.643223,0.42881 -1.179242,0.53602 -0.857631,-0.64322 0.750427,-2.5729 1.608057,-4.44896 2.465688,-6.32503 0.85763,-1.55445 1.608057,-3.21611 0.750426,-4.448958 -0.696824,-0.804028 -2.036872,-0.696825 -2.358483,-0.268009 -0.536019,0.589621 0.214407,1.608057 -2.25128,5.896207 -3.216115,3.69853 -4.288153,4.23455 -6.539433,5.6818 -4.020143,1.76887 -3.966541,-0.42881 -2.787299,-4.44895 0.696825,-1.60806 1.608057,-2.7873 2.680095,-4.12735 0.804029,-0.80403 2.412086,-1.87607 2.144077,-1.28645 -0.643223,2.35849 -2.51929,2.89451 -2.036873,4.82418 0.536019,1.28644 1.983271,0.32161 2.51929,-0.21441 3.591327,-4.60977 3.216114,-8.308298 0.482417,-8.254696 -3.752134,0 -6.003414,3.859336 -7.825878,6.914646 z M 96.610153,52.87477 c -2.090474,1.072038 -3.859337,2.680095 -5.092181,4.716965 -1.340047,1.92967 -2.304882,4.12735 -2.733697,6.43223 -0.214407,1.55446 -0.428815,2.6801 0.214408,4.02014 1.179242,2.14408 2.948105,1.34005 4.341754,0.96484 1.929669,-0.80403 3.108911,-2.14408 4.288153,-3.80574 0.268009,-0.2144 0.58962,-0.1608 0.964834,-0.2144 0.375213,0 0.85763,-0.16081 1.340047,-0.26801 -0.268009,0.42881 -0.911232,0.85763 -1.12564,1.34004 -0.375213,0.80403 -0.0536,1.55446 0.643223,1.76887 0.643226,0.2144 1.447256,-0.53602 2.197676,-1.39365 l 2.09048,-2.30489 c 0.1608,1.39365 0.0536,2.89451 0.91123,3.96655 1.23284,1.23284 3.85934,0.64322 4.87777,0 0.53602,-0.32162 0.37522,-2.03688 -0.21441,-2.25128 -0.64322,-0.21441 -2.14407,1.01843 -2.57289,0.42881 -0.80403,-0.96483 -0.48241,-3.59133 -0.48241,-4.66336 1.98327,-2.03688 3.96654,-4.44896 5.89621,-6.27143 l 0.69682,-0.750424 a 1.715261,1.715261 0 0 0 0.1072,-1.072039 1.7688629,1.7688629 0 0 0 -1.07203,-0.911232 c -0.42882,-0.0536 -0.80403,0.160806 -1.12564,0.375213 -1.60806,1.608058 -3.10891,3.484122 -4.50256,5.038582 l 0.42881,-3.698534 c 0,-1.232844 0.1072,-1.768863 -1.07204,-1.876067 -0.69682,-0.0536 -1.17924,0.160806 -1.34004,1.232844 -0.16081,1.125637 -0.48242,3.323317 -0.64323,5.360187 -0.53602,0.80403 -1.17924,1.50086 -1.76886,2.14408 -1.07204,0.96483 -1.76886,1.07204 -2.787299,1.28645 0.911232,-1.34005 1.608059,-2.7337 1.983269,-4.28816 0.42882,-1.07203 0.42882,-2.30488 0.32161,-3.37692 -0.21441,-1.286443 -0.69682,-1.822462 -1.983268,-2.412083 a 4.1809486,4.1809486 0 0 0 -2.840901,0.482418 z m 0.589621,7.772275 c -0.268009,0.53602 -0.643223,1.07204 -0.964834,1.55446 -1.340048,-0.53602 -1.286446,-1.44726 -1.39365,-2.30489 0.0536,-1.87606 1.018437,-3.53772 2.572892,-4.55616 2.572891,-1.286444 0.911232,3.32332 -0.214408,5.30659 z M 33.1991,56.090885 c 0.536019,0.1072 0.536019,0.48242 0.482417,0.85763 -0.0536,0.53602 -2.304882,4.71697 -4.180949,7.07545 -0.750427,0.96484 -1.393649,1.60806 -1.822465,1.60806 -0.964834,0 -1.179242,-0.26801 -1.179242,-0.80403 0,-1.60806 3.37692,-6.53943 5.306589,-7.98668 0.696825,-0.53602 1.018436,-0.80403 1.39365,-0.75043 z m 51.029013,1.07204 c 1.876067,-1.01844 2.51929,-0.42882 1.715261,1.76886 -0.804028,2.51929 -2.144076,4.39536 -4.288152,6.05702 -3.216115,2.68009 -2.626494,-0.64323 -2.036873,-1.92967 1.018437,-2.14408 2.412086,-4.18095 4.609764,-5.89621 z m 8.576305,4.02014 0.107204,0.64322 c 0.214408,1.39365 1.447251,1.60806 2.197678,2.35849 -0.536019,1.34004 -0.536019,1.39365 -2.144076,2.30488 -1.500854,0.75043 -1.500854,-0.26801 -1.554455,-0.80403 0.107203,-1.71526 0.58962,-3.21611 1.340047,-4.55616 z M 66.70029,73.886715 c -1.340047,2.35849 -3.323318,4.28815 -5.896209,5.36019 -3.859337,1.28645 -5.038579,-1.12564 -3.216115,-2.7337 1.983271,-1.50085 6.271423,-2.14407 9.112324,-2.62649 z"
     id="path2"
     inkscape:connector-curvature="0"
     style="stroke-width:5.36019039;fill:#ff5268;fill-opacity:1" />
</svg>
