<?xml version="1.0" encoding="UTF-8" standalone="no"?>
<!-- Created with Inkscape (http://www.inkscape.org/) -->

<svg
   xmlns:dc="http://purl.org/dc/elements/1.1/"
   xmlns:cc="http://creativecommons.org/ns#"
   xmlns:rdf="http://www.w3.org/1999/02/22-rdf-syntax-ns#"
   xmlns:svg="http://www.w3.org/2000/svg"
   xmlns="http://www.w3.org/2000/svg"
   xmlns:sodipodi="http://sodipodi.sourceforge.net/DTD/sodipodi-0.dtd"
   xmlns:inkscape="http://www.inkscape.org/namespaces/inkscape"
   width="420"
   height="420"
   id="svg2"
   version="1.1"
   inkscape:version="0.48.2 r9819"
   sodipodi:docname="OSM_black.svg">
  <defs
     id="defs4" />
  <sodipodi:namedview
     id="base"
     pagecolor="#ffffff"
     bordercolor="#666666"
     borderopacity="1.0"
     inkscape:pageopacity="0.0"
     inkscape:pageshadow="2"
     inkscape:zoom="1.0142643"
     inkscape:cx="-332.49855"
     inkscape:cy="157.08402"
     inkscape:document-units="px"
     inkscape:current-layer="layer1"
     showgrid="false"
     inkscape:window-width="1920"
     inkscape:window-height="1028"
     inkscape:window-x="-8"
     inkscape:window-y="-8"
     inkscape:window-maximized="1" />
  <metadata
     id="metadata7">
    <rdf:RDF>
      <cc:Work
         rdf:about="">
        <dc:format>image/svg+xml</dc:format>
        <dc:type
           rdf:resource="http://purl.org/dc/dcmitype/StillImage" />
        <dc:title></dc:title>
      </cc:Work>
    </rdf:RDF>
  </metadata>
  <g
     inkscape:label="Ebene 1"
     inkscape:groupmode="layer"
     id="layer1"
     transform="translate(0,-632.36217)">
    <g
       id="g3102"
       transform="matrix(1.9577421,0,0,1.9577612,-370.40729,19.435448)">
      <path
         id="path2986"
         d="m 214,367.588 0.721,-2.897 41.688,10.395 14.229,-3.555 0.721,2.896 -14.946,3.736 -42.413,-10.575 0,0 z m -0.004,-0.001 0.004,0.001 v 0.002 l -0.004,-0.003 0,0 z"
         inkscape:connector-curvature="0"
         style="fill:#00A09D" />
      <polygon
         id="polygon2988"
         points="247.364,418.961 257.948,461.297 247.275,503.992 244.375,503.269 244.375,503.269 254.871,461.297 244.287,418.957 254.867,376.643 243.675,335.366 246.561,334.584 257.955,376.604 "
         style="fill:#00A09D" />
      <polygon
         id="polygon2990"
         points="297.115,450.712 294.006,438.278 296.902,437.552 300.193,450.709 289.518,493.409 286.621,492.687 286.621,492.687 "
         style="fill:#00A09D" />
      <polygon
         id="polygon2992"
         points="285.919,324.78 285.919,324.78 288.8,324.001 292.389,337.239 289.505,338.019 "
         style="fill:#00A09D" />
      <polygon
         id="polygon2994"
         points="342.623,461.297 331.946,503.996 329.048,503.269 329.048,503.269 339.546,461.297 336.283,448.26 336.287,448.26 339.183,447.536 "
         style="fill:#00A09D" />
      <polygon
         id="polygon2996"
         points="203.852,407.121 245.544,417.514 275.353,410.063 276.073,412.959 245.544,420.59 203.129,410.02 203.129,410.02 "
         style="fill:#00A09D" />
      <polygon
         id="polygon2998"
         points="382.776,449.162 383.498,452.06 340.798,462.731 298.463,452.148 298.463,452.148 256.125,462.731 213.714,452.162 214.436,449.262 256.125,459.656 298.463,449.07 340.798,459.656 "
         style="fill:#00A09D" />
      <polygon
         id="polygon3000"
         points="288.162,495.509 288.162,495.509 245.823,506.091 200.591,494.785 211.613,450.71 201.027,408.375 211.609,366.046 200.142,320.797 245.82,331.829 288.166,321.24 304.849,325.412 303.688,330.045 288.166,326.164 245.833,336.749 206.719,327.3 216.537,366.039 205.951,408.375 216.537,450.71 206.387,491.31 245.827,501.167 288.162,490.585 330.498,501.167 370.863,491.079 380.955,450.714 376.106,431.319 376.11,431.319 380.742,430.16 385.883,450.71 374.803,495.019 330.498,506.095 "
         style="fill:#00A09D" />
      <polygon
         id="polygon3002"
         points="378.338,335.86 373.702,337.02 371.096,326.599 371.096,326.599 360.594,329.226 360.594,329.229 359.435,324.59 374.573,320.808 "
         style="fill:#00A09D" />
      <g
         id="g3004">
	<polygon
   id="polygon3006"
   points="268.221,481.615 272.631,481.615 273.485,496.826 271.794,496.919 271.03,483.309 271.03,483.309 265.763,483.309 276.667,454.793 266.277,430.025 256.409,420.157 245.827,430.742 234.394,419.311 234.394,412.729 244.407,403.152 223.809,391.73 223.809,380.438 234.394,365.77 234.394,350.483 223.538,345.271 229.779,331.788 229.783,331.788 231.315,332.498 225.777,344.469 236.088,349.417 236.088,366.314 225.506,380.984 225.506,390.732 247.243,402.786 236.088,413.45 236.088,418.607 245.827,428.346 256.409,417.76 267.708,429.059 278.492,454.763 "
   style="fill:#00A09D" />

	<polygon
   id="polygon3008"
   points="297.716,461.464 307.089,442.721 308.601,443.475 299.775,461.128 310.178,471.529 310.178,483.31 288.026,483.31 257.259,473.055 257.259,482.983 235.074,494.078 224.679,483.683 214.576,494.613 213.332,493.465 213.332,493.465 224.634,481.242 235.41,492.018 255.562,481.938 255.562,470.706 288.3,481.612 308.484,481.612 308.484,472.232 "
   style="fill:#00A09D" />

	<path
   id="path3010"
   d="m 292.875,477.574 c -0.99,-0.078 -3.523,-0.267 -6.04,-0.653 l 0,0 c -2.545,-0.425 -4.962,-0.859 -6.226,-2.021 l 0,0 c -0.695,-0.723 -2.637,-1.558 -4.712,-2.257 l 0,0 c -2.085,-0.719 -4.317,-1.369 -5.869,-2.075 l 0,0 c -0.976,-0.514 -1.935,-0.849 -2.078,-2.126 l 0,0 c 0.024,-0.777 0.548,-1.243 1.123,-1.596 l 0,0 c 0.606,-0.37 1.432,-0.695 2.578,-1.048 l 0,0 c 0.593,-0.15 1.134,-0.907 1.613,-2.055 l 0,0 c 0.486,-1.123 0.87,-2.469 1.626,-3.523 l 0,0 c 0.49,-0.698 1.309,-1.312 2.35,-1.301 l 0,0 c 1.712,0.003 3.215,0.075 4.482,0.075 l 0,0 c 1.979,0.007 3.28,-0.216 3.992,-0.877 l 0,0 c 0.732,-0.633 1.264,-2.003 1.26,-4.862 l 0,0 c -0.014,-1.616 0.473,-2.767 1.257,-3.496 l 0,0 c 0.771,-0.719 1.65,-1.021 2.387,-1.387 l 0,0 c 1.421,-0.78 2.603,-1.335 2.691,-5.643 l 0,0 c 0,-0.916 -0.157,-1.638 -0.413,-2.236 l 0,0 1.554,-0.675 c 0.359,0.829 0.555,1.798 0.555,2.911 l 0,0 c 0.023,3.482 -0.979,5.352 -2.336,6.379 l 0,0 c -1.335,0.989 -2.667,1.25 -3.273,1.88 l 0,0 c -0.403,0.4 -0.712,0.925 -0.726,2.267 l 0,0 c -0.004,3.01 -0.514,4.935 -1.825,6.126 l 0,0 c -1.332,1.161 -3.085,1.298 -5.122,1.305 l 0,0 c -1.329,0 -2.818,-0.072 -4.482,-0.072 l 0,0 c -0.404,0.015 -0.63,0.151 -0.983,0.604 l 0,0 c -0.328,0.448 -0.64,1.171 -0.948,1.965 l 0,0 c -0.644,1.548 -1.195,3.562 -3.167,4.239 l 0,0 c -1.343,0.387 -2.144,0.813 -2.416,1.023 l 0,0 c 0.011,0.011 0.022,0.021 0.036,0.031 l 0,0 c 0.178,0.147 0.523,0.35 0.973,0.555 l 0,0 c 0.896,0.411 2.198,0.846 3.588,1.305 l 0,0 c 2.802,0.941 5.903,1.853 7.479,3.362 l 0,0 c 0.422,0.518 2.884,1.219 5.291,1.548 l 0,0 c 2.435,0.373 4.927,0.562 5.917,0.641 l 0,0 c 0.551,0.041 1.054,0.062 1.513,0.062 l 0,0 c 3.921,0.023 5.058,-1.5 9.999,-2.479 l 0,0 c 4.064,-0.791 6.174,-2.078 7.324,-3.722 l 0,0 c 1.157,-1.644 1.455,-3.869 1.452,-6.746 l 0,0 c 0,-2.133 -0.154,-4.585 -0.154,-7.32 l 0,0 c 0,-3.887 0,-7.773 0,-11.659 l 0,0 h 1.691 c 0,3.886 0,7.772 0,11.659 l 0,0 c 0,2.674 0.157,5.108 0.157,7.32 l 0,0 c -0.003,2.959 -0.271,5.575 -1.76,7.719 l 0,0 c -1.5,2.144 -4.123,3.588 -8.393,4.41 l 0,0 c -4.489,0.839 -5.811,2.489 -10.317,2.514 l 0,0 c -0.507,-10e-4 -1.056,-0.026 -1.648,-0.071 l 0,0 z m 0.021,-37.083 c 0,0.001 10e-4,0.002 10e-4,0.003 l 0,0 h -10e-4 v -0.003 l 0,0 z"
   inkscape:connector-curvature="0"
   style="fill:#00A09D" />

	<path
   id="path3012"
   d="m 223.991,445.938 c -3.4,-1.507 -5.457,-5.851 -7.743,-9.753 l 0,0 c -2.242,-3.967 -4.624,-7.289 -7.405,-7.319 l 0,0 0.068,-1.695 c 4.101,0.253 6.51,4.258 8.803,8.171 l 0,0 c 2.248,3.978 4.473,8.064 6.937,9.038 l 0,0 c 6.486,2.73 7.443,3.934 16.485,3.961 l 0,0 c 2.638,-0.092 2.795,-0.625 3.188,-1.483 l 0,0 c 0.362,-0.901 0.362,-2.593 1.927,-3.796 l 0,0 c 1.039,-0.77 2.57,-1.176 5.003,-1.179 l 0,0 c 1.853,0.041 5.707,-1.798 8.857,-4.524 l 0,0 c 3.198,-2.71 5.73,-6.288 5.696,-9.34 l 0,0 c 0,-0.684 0.588,-1.097 0.954,-1.189 l 0,0 c 0.399,-0.133 0.816,-0.164 1.312,-0.167 l 0,0 c 1.658,0.007 4.187,0.468 6.817,1.151 l 0,0 -0.427,1.637 c -2.532,-0.663 -5.037,-1.097 -6.391,-1.094 l 0,0 c -0.238,-0.003 -0.441,0.016 -0.582,0.037 l 0,0 c -0.206,3.813 -3.023,7.446 -6.279,10.249 l 0,0 c -3.414,2.881 -7.259,4.894 -9.958,4.935 l 0,0 c -3.424,0.038 -4.183,0.807 -4.616,1.589 l 0,0 c -0.503,0.831 -0.373,2.293 -1.494,3.589 l 0,0 c -0.789,0.847 -2.054,1.284 -4.008,1.281 l 0,0 c -0.075,0 -0.147,0 -0.221,0 l 0,0 c -8.985,-0.002 -10.724,-1.459 -16.923,-4.099 l 0,0 z"
   inkscape:connector-curvature="0"
   style="fill:#00A09D" />

	<g
   id="g1922_7_">
		<path
   id="path3015"
   d="m 245.827,419.806 c -5.5,0 -10.996,0 -16.492,0 l 0,0 c -2.233,0.004 -3.724,-0.532 -4.61,-1.582 l 0,0 c -0.873,-1.054 -0.975,-2.343 -0.981,-3.519 l 0,0 c 0,-0.747 0.051,-1.477 0.051,-2.142 l 0,0 c 0.007,-1.067 -0.14,-1.896 -0.566,-2.39 l 0,0 c -0.409,-0.495 -1.255,-0.945 -3.201,-0.952 l 0,0 c -3.945,-0.026 -10.648,-2.41 -14.055,-2.383 l 0,0 c -0.706,-0.004 -1.225,0.116 -1.449,0.256 l 0,0 c -0.215,0.153 -0.256,0.177 -0.283,0.559 l 0,0 c 0,0.134 0.021,0.308 0.072,0.519 l 0,0 0.003,0.004 -1.646,0.402 c -0.079,-0.317 -0.123,-0.621 -0.123,-0.925 l 0,0 c -0.027,-0.846 0.439,-1.653 1.125,-2.021 l 0,0 c 0.672,-0.382 1.442,-0.48 2.302,-0.484 l 0,0 c 3.941,0.027 10.642,2.407 14.055,2.38 l 0,0 c 2.172,-0.003 3.635,0.525 4.504,1.565 l 0,0 c 0.853,1.04 0.951,2.305 0.958,3.471 l 0,0 c 0,0.743 -0.051,1.473 -0.051,2.142 l 0,0 c -0.007,1.081 0.143,1.919 0.583,2.431 l 0,0 c 0.426,0.508 1.306,0.972 3.314,0.976 l 0,0 c 5.264,0 10.527,0 15.795,0 l 0,0 c -0.059,-0.78 -0.265,-2.209 -0.268,-3.706 l 0,0 c 0.007,-1.511 0.194,-3.165 1.067,-4.546 l 0,0 c 0.869,-1.397 2.516,-2.353 4.855,-2.332 l 0,0 c 0.31,0.034 0.814,-0.32 1.347,-1.463 l 0,0 c 0.515,-1.098 0.965,-2.734 1.381,-4.572 l 0,0 c 0.835,-3.689 1.537,-8.166 2.837,-11.303 l 0,0 c 0.832,-2.002 2.021,-3.719 4.026,-3.824 l 0,0 c 0.023,-0.029 0.059,-0.077 0.096,-0.145 l 0,0 c 0.143,-0.239 0.313,-0.695 0.457,-1.275 l 0,0 c 0.293,-1.166 0.511,-2.826 0.668,-4.552 l 0,0 c 0.317,-3.468 0.389,-7.164 0.487,-8.258 l 0,0 c 0.546,-5.756 4.392,-9.643 7.873,-14.079 l 0,0 c 3.509,-4.46 6.765,-9.41 6.775,-17.413 l 0,0 c 0,-5.646 0,-7.245 0,-12.892 l 0,0 h 1.694 c 0,5.646 0,7.245 0,12.892 l 0,0 c 0.01,8.493 -3.566,13.949 -7.14,18.46 l 0,0 c -3.598,4.535 -7.075,8.184 -7.519,13.186 l 0,0 c -0.075,0.814 -0.146,3.843 -0.375,6.928 l 0,0 c -0.256,3.131 -0.566,6.24 -1.452,7.853 l 0,0 c -0.26,0.45 -0.692,0.965 -1.442,0.985 l 0,0 c -0.788,-0.017 -1.545,0.621 -2.288,2.121 l 0,0 c -0.72,1.463 -1.296,3.573 -1.801,5.827 l 0,0 c -1.046,4.545 -1.694,9.554 -3.439,11.972 l 0,0 c -0.505,0.691 -1.255,1.251 -2.186,1.247 l 0,0 c -1.94,0.024 -2.827,0.648 -3.427,1.549 l 0,0 c -0.597,0.917 -0.809,2.273 -0.802,3.635 l 0,0 c -0.003,1.626 0.272,3.144 0.283,4.07 l 0,0 c -0.004,0.198 -0.007,0.372 -0.078,0.614 l 0,0 c -0.021,0.202 -0.376,0.716 -0.914,0.716 l 0,0 c -0.007,-0.002 -0.014,-0.002 -0.02,-0.002 l 0,0 z"
   inkscape:connector-curvature="0"
   style="fill:#00A09D" />

		<path
   id="path3017"
   d="m 211.855,395.459 c -1.103,-0.004 -1.927,0.201 -2.39,0.538 l 0,0 c -0.449,0.34 -0.719,0.779 -0.735,1.797 l 0,0 h -1.695 c -0.017,-1.368 0.507,-2.519 1.447,-3.176 l 0,0 c 0.929,-0.653 2.093,-0.848 3.373,-0.852 l 0,0 c 5.052,0.031 12.998,3.211 17.479,3.18 l 0,0 c 3.625,0 5.852,-0.234 7.24,-0.599 l 0,0 c 1.396,-0.375 1.907,-0.793 2.397,-1.328 l 0,0 c 0.956,-1.096 1.841,-3.196 6.604,-4.596 l 0,0 c 1.41,-0.5 1.553,-0.916 1.607,-1.709 l 0,0 c 0.023,-1.001 -0.732,-2.628 -1.573,-4.266 l 0,0 c -0.82,-1.661 -1.732,-3.329 -1.756,-4.997 l 0,0 c -0.031,-1.06 0.521,-2.179 1.637,-2.778 l 0,0 c 1.043,-0.582 2.475,-0.86 4.528,-0.893 l 0,0 c 0.017,-0.154 0.029,-0.375 0.027,-0.629 l 0,0 c 0.003,-0.627 -0.052,-1.481 -0.052,-2.41 l 0,0 c 0.007,-1.563 0.126,-3.374 1.028,-4.913 l 0,0 c 0.896,-1.563 2.693,-2.662 5.39,-2.635 l 0,0 c 1.256,-0.017 1.854,-0.367 2.294,-0.96 l 0,0 c 0.439,-0.603 0.685,-1.627 0.678,-2.972 l 0,0 c 0.034,-5.451 -3.789,-15.007 -3.82,-21.025 l 0,0 c 0.004,-1.917 -0.34,-5.887 -0.34,-7.936 l 0,0 h 1.695 c -0.004,1.913 0.337,5.883 0.341,7.936 l 0,0 c -0.031,5.447 3.788,15.003 3.819,21.025 l 0,0 c -0.004,1.521 -0.238,2.887 -0.994,3.955 l 0,0 c -0.756,1.083 -2.063,1.686 -3.673,1.672 l 0,0 c -2.302,0.023 -3.292,0.766 -3.933,1.801 l 0,0 c -0.633,1.052 -0.8,2.591 -0.793,4.052 l 0,0 c 0,0.868 0.055,1.698 0.055,2.41 l 0,0 c -0.004,0.477 -0.014,0.889 -0.133,1.307 l 0,0 c -0.062,0.382 -0.542,1.035 -1.226,1.012 l 0,0 c -2.104,-0.004 -3.401,0.296 -4.055,0.677 l 0,0 c -0.637,0.396 -0.749,0.688 -0.779,1.305 l 0,0 c -0.024,0.977 0.731,2.597 1.572,4.234 l 0,0 c 0.824,1.661 1.732,3.347 1.757,5.028 l 0,0 c 0.058,1.44 -0.953,2.826 -2.802,3.326 l 0,0 c -3.36,1.059 -4.215,2.053 -4.998,3.037 l 0,0 c -0.745,1 -1.613,2.314 -4.078,2.91 l 0,0 c -1.634,0.422 -3.97,0.65 -7.666,0.65 l 0,0 c -5.054,-0.029 -12.997,-3.208 -17.477,-3.178 l 0,0 z"
   inkscape:connector-curvature="0"
   style="fill:#00A09D" />

		<path
   id="path3019"
   d="m 224.66,440.975 c -0.461,-0.007 -0.714,-0.349 -0.762,-0.461 l 0,0 c -0.068,-0.144 -0.075,-0.212 -0.089,-0.271 l 0,0 c -0.017,-0.105 -0.014,-0.16 -0.017,-0.222 l 0,0 c 0.003,-0.402 0.092,-1.205 0.092,-2.315 l 0,0 c 0.003,-1.499 -0.181,-3.436 -0.912,-4.873 l 0,0 c -0.755,-1.435 -1.837,-2.414 -4.162,-2.441 l 0,0 c -2.271,-0.045 -4.635,-1.711 -6.707,-3.862 l 0,0 c -1.871,-1.986 -3.449,-4.421 -4.084,-6.734 l 0,0 c -0.248,0.005 -0.481,0.012 -0.54,0.014 l 0,0 v -1.697 c 0.014,0 0.56,-0.014 0.911,-0.014 l 0,0 c 0.134,0 0.229,0 0.349,0.01 l 0,0 c 0.068,0.024 0.034,-0.03 0.342,0.1 l 0,0 c 0.078,0.055 0.317,0.133 0.44,0.594 l 0,0 c 0.372,2.005 1.923,4.58 3.811,6.563 l 0,0 c 1.868,2.009 4.133,3.374 5.479,3.33 l 0,0 c 2.896,-0.027 4.777,1.513 5.675,3.377 l 0,0 c 0.926,1.861 1.09,4.006 1.093,5.635 l 0,0 c 0,0.59 -0.024,1.129 -0.048,1.541 l 0,0 c 6.086,-0.374 7.739,-4.035 8.716,-5.317 l 0,0 c 0.188,-0.195 0.235,-0.444 0.836,-0.625 l 0,0 c 2.927,-0.526 7.441,-0.793 9.095,-2.186 l 0,0 c 0.546,-0.451 0.788,-0.875 0.802,-1.574 l 0,0 c -0.058,-9.187 6.68,-10.413 9.221,-12.704 l 0,0 c 0.867,-0.785 1.346,-1.544 1.366,-2.94 l 0,0 c -0.062,-5.765 3.06,-7.762 5.638,-9.593 l 0,0 c 2.568,-1.942 4.884,-3.794 4.941,-10.645 l 0,0 c 0.038,-0.768 -0.724,-1.636 -1.771,-2.615 l 0,0 c -0.984,-0.977 -2.258,-2.066 -2.292,-3.839 l 0,0 c 0,-2.581 0.146,-4.303 0.485,-5.546 l 0,0 c 0.32,-1.236 0.963,-2.09 1.813,-2.493 l 0,0 c 1.684,-0.751 3.279,-0.317 5.529,-1.427 l 0,0 v 0.003 l 0.734,1.523 c -2.001,0.967 -3.675,0.986 -4.706,1.182 l 0,0 c -1.031,0.267 -1.26,0.235 -1.738,1.659 l 0,0 c -0.27,0.967 -0.427,2.585 -0.423,5.099 l 0,0 c -0.038,0.769 0.724,1.633 1.771,2.616 l 0,0 c 0.984,0.973 2.258,2.066 2.292,3.838 l 0,0 c 0.062,7.261 -2.916,10.085 -5.639,12.011 l 0,0 c -2.711,2.039 -4.88,3.104 -4.941,8.227 l 0,0 c 0.018,1.871 -0.826,3.258 -1.942,4.214 l 0,0 c -1.117,0.967 -2.47,1.64 -3.75,2.438 l 0,0 c -2.551,1.646 -4.843,3.48 -4.894,8.992 l 0,0 c 0.014,1.219 -0.591,2.243 -1.441,2.898 l 0,0 c -0.85,0.67 -1.919,1.076 -3.063,1.387 l 0,0 c -2.197,0.578 -4.755,0.771 -6.555,1.098 l 0,0 c -0.002,0.003 -0.004,0.006 -0.006,0.009 l 0,0 c -0.103,0.134 -0.256,0.372 -0.454,0.666 l 0,0 c -0.393,0.584 -0.963,1.387 -1.793,2.186 l 0,0 c -1.649,1.608 -4.38,3.187 -8.674,3.187 l 0,0 c -0.01,-0.003 -0.02,-0.003 -0.028,-0.003 l 0,0 z"
   inkscape:connector-curvature="0"
   style="fill:#00A09D" />

		<path
   id="path3021"
   d="m 287.316,493.05 c 0.031,-1.598 0.901,-3.781 0.871,-4.803 l 0,0 c 0.002,-0.106 -0.008,-0.19 -0.018,-0.243 l 0,0 c -0.002,0 -0.005,0 -0.007,0 l 0,0 c -0.956,0 -1.889,-0.041 -2.794,-0.041 l 0,0 c -0.456,0 -0.901,0.01 -1.344,0.041 l 0,0 c -3.496,0.209 -8.104,1.389 -12.506,1.396 l 0,0 c -1.628,-0.004 -3.239,-0.165 -4.768,-0.621 l 0,0 c -1.944,-0.593 -4.601,-2.317 -6.901,-4.363 l 0,0 c -2.266,-2.077 -4.213,-4.316 -4.288,-6.568 l 0,0 c 0.004,0 0,-0.233 0,-0.638 l 0,0 c 0.004,-2.184 -0.079,-9.667 -0.98,-13.746 l 0,0 c -0.244,-1.264 -0.697,-2.184 -0.877,-2.324 l 0,0 c -0.021,0.011 -0.05,0.029 -0.09,0.058 l 0,0 c -0.116,0.09 -0.305,0.281 -0.521,0.59 l 0,0 c -1.468,2.047 -4.947,4.721 -6.654,6.527 l 0,0 c -3.582,3.825 -6.616,4.645 -10.335,4.607 l 0,0 c -2.033,-0.004 -4.303,-0.195 -7.176,-0.192 l 0,0 c -2.45,-0.034 -4.819,-1.714 -7.068,-3.691 l 0,0 c -2.238,-1.995 -4.315,-4.382 -5.845,-6.041 l 0,0 c -0.715,-0.809 -1.404,-1.464 -1.734,-1.738 l 0,0 -1.039,0.199 c -0.051,-0.271 -0.082,-0.507 -0.085,-0.743 l 0,0 c 0.007,-0.22 0.017,-0.446 0.171,-0.734 l 0,0 c 0.134,-0.298 0.583,-0.555 0.905,-0.527 l 0,0 c 0.713,0.064 0.939,0.373 1.371,0.709 l 0,0 c 0.401,0.354 0.85,0.819 1.364,1.368 l 0,0 c 1.021,1.101 2.286,2.54 3.672,3.97 l 0,0 c 2.735,2.883 6.084,5.608 8.288,5.533 l 0,0 c 2.948,0.003 5.252,0.195 7.176,0.195 l 0,0 c 3.53,-0.038 5.666,-0.524 9.107,-4.08 l 0,0 c 1.852,-1.933 5.341,-4.676 6.5,-6.338 l 0,0 c 0.559,-0.771 1.124,-1.344 2.009,-1.378 l 0,0 c 0.74,0.01 1.248,0.5 1.557,0.987 l 0,0 c 0.322,0.504 0.552,1.117 0.75,1.837 l 0,0 c 0.398,1.43 0.655,3.281 0.833,5.228 l 0,0 c 0.36,3.888 0.395,8.135 0.395,9.726 l 0,0 c 0,0.408 0,0.62 0.004,0.638 l 0,0 c -0.076,1.114 1.553,3.421 3.719,5.307 l 0,0 c 2.133,1.92 4.769,3.572 6.257,4.004 l 0,0 c 1.319,0.395 2.766,0.549 4.284,0.545 l 0,0 c 4.114,0.007 8.656,-1.148 12.399,-1.392 l 0,0 c 0.487,-0.031 0.971,-0.041 1.45,-0.041 l 0,0 c 0.953,0 1.886,0.041 2.794,0.041 l 0,0 c 0.504,-0.018 1.076,0.22 1.371,0.654 l 0,0 c 0.295,0.426 0.343,0.868 0.35,1.282 l 0,0 c -0.034,1.595 -0.905,3.774 -0.87,4.803 l 0,0 h -1.697 l 0,-0.003 z"
   inkscape:connector-curvature="0"
   style="fill:#00A09D" />

		<path
   id="path3023"
   d="m 293.081,493.894 v 0.004 -0.004 l 0,0 z m 0,0 V 492.2 c 4.115,0 8.228,0 9.51,0 l 0,0 c 5.394,0.059 10.438,-4.36 17.074,-6.257 l 0,0 c 0.006,-0.027 0.015,-0.075 0.013,-0.157 l 0,0 c 0.034,-0.661 -0.58,-2.081 -0.61,-3.325 l 0,0 c -0.021,-1.046 0.606,-1.906 1.378,-2.352 l 0,0 c 0.771,-0.47 1.687,-0.703 2.66,-0.892 l 0,0 c 1.934,-0.354 4.158,-0.497 5.434,-1.005 l 0,0 c 0.871,-0.377 1.094,-0.627 1.111,-1.172 l 0,0 c 0.003,-5.026 0.486,-8.3 1.512,-10.617 l 0,0 c 1.019,-2.324 2.678,-3.604 4.607,-4.402 l 0,0 c 3.87,-1.611 8.896,-1.848 15.39,-6.723 l 0,0 c 1.501,-1.146 3,-1.426 4.24,-1.416 l 0,0 c 0.971,0 1.8,0.138 2.441,0.134 l 0,0 c 0.908,-0.052 1.278,-0.089 1.937,-1.151 l 0,0 c 0.631,-1.101 1.228,-3.384 1.629,-7.494 l 0,0 c 0.01,-0.24 0.175,-0.583 0.432,-0.744 l 0,0 c 0.25,-0.168 0.48,-0.188 0.651,-0.192 l 0,0 c 0.768,0.045 1.405,0.411 2.376,0.901 l 0,0 c 0.933,0.497 2.029,1.148 3.126,1.807 l 0,0 c 2.096,1.282 4.419,2.636 4.865,2.723 l 0,0 c 0.997,-0.011 1.5,-0.26 1.803,-0.586 l 0,0 c 0.306,-0.329 0.501,-0.896 0.501,-1.759 l 0,0 c 0.027,-2.558 -1.831,-7.053 -3.856,-11.454 l 0,0 1.539,-0.706 c 2.026,4.471 3.983,8.931 4.011,12.16 l 0,0 c 0,1.097 -0.24,2.125 -0.946,2.903 l 0,0 c -0.706,0.774 -1.782,1.142 -3.071,1.135 l 0,0 c -0.744,-0.055 -1.244,-0.397 -2.149,-0.86 l 0,0 c -0.851,-0.47 -1.879,-1.087 -2.932,-1.721 l 0,0 c -1.784,-1.084 -3.736,-2.233 -4.744,-2.669 l 0,0 c -0.416,3.737 -0.966,5.956 -1.759,7.386 l 0,0 c -0.816,1.56 -2.235,2.067 -3.411,2.016 l 0,0 c -0.844,-0.003 -1.643,-0.137 -2.441,-0.134 l 0,0 c -1.021,0.007 -2.016,0.175 -3.223,1.073 l 0,0 c -5.101,3.843 -9.496,4.995 -12.811,5.955 l 0,0 c -3.363,0.99 -5.369,1.663 -6.654,4.508 l 0,0 c -0.867,1.934 -1.372,5.013 -1.368,9.929 l 0,0 c 0.021,1.045 -0.606,1.906 -1.378,2.352 l 0,0 c -0.771,0.47 -1.687,0.706 -2.66,0.892 l 0,0 c -1.934,0.356 -4.159,0.5 -5.435,1.004 l 0,0 c -0.87,0.381 -1.093,0.631 -1.11,1.173 l 0,0 c -0.034,0.658 0.579,2.081 0.61,3.325 l 0,0 c 0.062,0.606 -0.336,1.577 -1.23,1.783 l 0,0 c -6.182,1.669 -11.245,6.27 -17.55,6.324 l 0,0 c -1.284,-10e-4 -5.398,-10e-4 -9.512,-10e-4 l 0,0 z"
   inkscape:connector-curvature="0"
   style="fill:#00A09D" />

		<path
   id="path3025"
   d="m 319.045,499.566 c 0.045,-0.803 0.456,-1.317 1.016,-2.055 l 0,0 c 0.576,-0.714 1.375,-1.536 2.359,-2.466 l 0,0 c 1.965,-1.853 4.682,-4.112 7.751,-6.503 l 0,0 c 6.14,-4.781 13.691,-10.077 19.437,-13.571 l 0,0 c 3.893,-2.322 6.712,-3.869 8.434,-3.938 l 0,0 c 6.609,0 13.219,0 19.835,0 l 0,0 v 1.694 c -6.616,0 -13.226,0 -19.835,0 l 0,0 c -0.565,-0.059 -3.052,1.008 -6.036,2.785 l 0,0 c -3.035,1.77 -6.791,4.218 -10.632,6.894 l 0,0 c -7.68,5.344 -15.739,11.637 -19.111,15.173 l 0,0 c -0.96,0.978 -1.52,1.839 -1.522,2 l 0,0 -0.062,-0.014 h 0.062 -0.384 l -1.249,0.397 c -0.043,-0.121 -0.063,-0.259 -0.063,-0.396 l 0,0 z"
   inkscape:connector-curvature="0"
   style="fill:#00A09D" />

	</g>

</g>
      <path
         id="path3027"
         d="m 263.874,437.028 15.904,-15.902 C 272.387,410.091 268.69,397.313 268.69,384.547 l 0,0 c -0.003,-16.785 6.396,-33.58 19.198,-46.382 l 0,0 c 12.817,-12.82 29.646,-19.233 46.452,-19.233 l 0,0 c 16.815,0 33.651,6.424 46.475,19.243 l 0,0 -1.559,1.563 -1.56,1.559 C 365.725,329.329 350.041,323.35 334.34,323.347 l 0,0 c -15.694,0.003 -31.368,5.976 -43.331,17.94 l 0,0 c -11.951,11.947 -17.906,27.591 -17.909,43.261 l 0,0 c 0,12.475 3.781,24.948 11.336,35.56 l 0,0 1.08,1.518 -15.404,15.404 11.853,11.852 15.401,-15.403 1.521,1.083 c 10.607,7.548 23.081,11.329 35.556,11.329 l 0,0 c 15.67,-0.003 31.313,-5.962 43.268,-17.906 l 0,0 c 11.965,-11.968 17.934,-27.646 17.934,-43.343 l 0,0 c 0,-15.698 -5.982,-31.376 -17.947,-43.344 l 0,0 1.56,-1.559 1.559,-1.563 c 12.819,12.819 19.246,29.652 19.243,46.465 l 0,0 c 0.003,16.809 -6.406,33.645 -19.229,46.464 l 0,0 c -12.803,12.799 -29.601,19.198 -46.386,19.195 l 0,0 c -12.766,0 -25.542,-3.696 -36.574,-11.084 l 0,0 -15.904,15.907 -18.093,-18.095 0,0 z m 31.502,-13.411 c -10.759,-10.751 -16.143,-24.88 -16.14,-38.984 l 0,0 c -0.003,-14.105 5.381,-28.23 16.14,-38.985 l 0,0 c 10.751,-10.751 24.869,-16.135 38.967,-16.132 l 0,0 c 14.105,-0.003 28.23,5.388 38.988,16.146 l 0,0 -1.559,1.563 -1.563,1.559 c -9.906,-9.906 -22.876,-14.854 -35.867,-14.854 l 0,0 c -12.986,0 -25.949,4.94 -35.85,14.84 l 0,0 c -9.901,9.9 -14.84,22.87 -14.843,35.864 l 0,0 c 0.003,12.993 4.942,25.963 14.843,35.866 l 0,0 c 9.9,9.897 22.873,14.84 35.863,14.844 l 0,0 c 12.994,-0.004 25.964,-4.943 35.867,-14.844 l 0,0 c 9.896,-9.903 14.837,-22.866 14.84,-35.85 l 0,0 c -0.003,-12.99 -4.95,-25.964 -14.854,-35.867 l 0,0 1.563,-1.559 1.559,-1.563 c 10.755,10.755 16.146,24.884 16.143,38.988 l 0,0 c 0.003,14.095 -5.377,28.217 -16.129,38.968 l 0,0 c -10.754,10.758 -24.883,16.139 -38.988,16.139 l 0,0 c -14.104,0 -28.229,-5.384 -38.98,-16.139 l 0,0 z"
         inkscape:connector-curvature="0"
         style="fill:#00A09D" />
      <g
         id="g3029">
	<path
   d="m 269.153,436.804 13.038,13.038 c 4.667,4.665 4.667,12.23 0,16.897 l -49.701,49.699 c -4.664,4.666 -12.229,4.666 -16.895,0 L 202.555,503.4 c -4.666,-4.666 -4.666,-12.231 0,-16.897 l 49.7,-49.699 c 4.667,-4.667 12.233,-4.667 16.898,0 z"
   id="rect1762_8_"
   inkscape:connector-curvature="0"
   style="fill:#00A09D" />

	<path
   id="path3032"
   d="m 224.042,523.247 c -3.896,0.004 -7.819,-1.498 -10.787,-4.47 l 0,0 -13.042,-13.038 c -2.972,-2.972 -4.473,-6.898 -4.47,-10.788 l 0,0 c -0.003,-3.896 1.494,-7.822 4.47,-10.791 l 0,0 49.699,-49.696 c 2.973,-2.975 6.896,-4.477 10.792,-4.473 l 0,0 c 3.892,-0.004 7.814,1.497 10.786,4.472 l 0,0 10e-4,-0.002 13.038,13.038 c 2.973,2.972 4.474,6.896 4.467,10.788 l 0,0 c 0.007,3.896 -1.494,7.815 -4.467,10.791 l 0,0 -49.699,49.699 c -2.969,2.969 -6.89,4.47 -10.774,4.47 l 0,0 c -0.004,0 -0.009,0 -0.014,0 l 0,0 z m 30.554,-84.103 -49.703,49.699 c -1.69,1.694 -2.525,3.883 -2.529,6.108 l 0,0 c 0.004,2.22 0.835,4.412 2.532,6.109 l 0,0 13.038,13.038 c 1.694,1.69 3.886,2.524 6.108,2.528 l 0,0 c 2.22,-0.004 4.412,-0.835 6.105,-2.528 l 0,0 49.699,-49.7 c 1.694,-1.697 2.529,-3.889 2.532,-6.111 l 0,0 c -0.003,-2.22 -0.835,-4.412 -2.528,-6.105 l 0,0 -13.038,-13.038 2.34,-2.34 -2.34,2.34 c -1.697,-1.697 -3.89,-2.528 -6.108,-2.532 l 0,0 c -2.223,0.003 -4.414,0.838 -6.108,2.532 l 0,0 z"
   inkscape:connector-curvature="0"
   style="fill:#00A09D" />

</g>
      <path
         id="path3034"
         d="m 318.766,436.817 c 0.074,0 0.143,-0.009 0.215,-0.01 -1.85,-0.555 -3.658,-1.195 -5.418,-1.936 1.363,1.29 3.091,1.946 5.203,1.946 z"
         inkscape:connector-curvature="0"
         style="fill:#00A09D" />
      <g
         id="g3036">
	<path
   id="path3038"
   d="m 312.864,433.813 c 0.495,0.369 1.059,0.605 1.697,0.694 -0.569,-0.225 -1.136,-0.451 -1.697,-0.694 z"
   inkscape:connector-curvature="0"
   style="fill:#00A09D" />

	<polygon
   id="polygon3040"
   points="371.724,388.677 375.913,388.677 375.913,370.665 371.063,373.493 371.063,371.594 376.928,368.171 379.151,368.171 379.151,388.677 383.341,388.677 383.341,390.214 371.724,390.214 "
   style="fill:#00A09D" />

	<polygon
   id="polygon3042"
   points="293.593,368.171 295.816,368.171 295.816,388.677 300.006,388.677 300.006,390.214 288.389,390.214 288.389,388.677 292.578,388.677 292.578,370.665 287.728,373.493 287.728,371.594 "
   style="fill:#00A09D" />

	<polygon
   id="polygon3044"
   points="308.724,371.594 314.589,368.171 316.813,368.171 316.813,388.677 321.002,388.677 321.002,390.214 309.385,390.214 309.385,388.677 313.574,388.677 313.574,370.665 308.724,373.493 "
   style="fill:#00A09D" />

	<polygon
   id="polygon3046"
   points="350.728,365.997 354.917,365.997 354.917,347.985 350.066,350.813 350.066,348.914 355.932,345.491 358.155,345.491 358.155,365.997 362.345,365.997 362.345,367.534 350.728,367.534 "
   style="fill:#00A09D" />

	<polygon
   id="polygon3048"
   points="350.728,388.677 354.917,388.677 354.917,370.665 350.066,373.493 350.066,371.594 355.932,368.171 358.155,368.171 358.155,388.677 362.345,388.677 362.345,390.214 350.728,390.214 "
   style="fill:#00A09D" />

	<path
   id="path3050"
   d="m 315.186,345.275 c 2.62,0 4.661,-0.986 6.123,-2.959 1.46,-1.972 2.191,-4.728 2.191,-8.266 0,-1.018 -0.067,-1.962 -0.188,-2.851 -1.106,0.229 -2.196,0.502 -3.276,0.798 0.04,0.646 0.063,1.325 0.063,2.053 0,3.277 -0.408,5.728 -1.225,7.353 -0.816,1.624 -2.047,2.436 -3.689,2.436 -1.645,0 -2.874,-0.812 -3.69,-2.436 -0.672,-1.338 -1.063,-3.244 -1.182,-5.702 -1.08,0.537 -2.139,1.11 -3.176,1.716 0.33,1.968 0.971,3.605 1.933,4.899 1.466,1.973 3.504,2.959 6.116,2.959 z"
   inkscape:connector-curvature="0"
   style="fill:#00A09D" />

	<path
   id="path3052"
   d="m 294.189,367.955 c 2.62,0 4.661,-0.986 6.123,-2.959 1.46,-1.972 2.191,-4.728 2.191,-8.266 0,-3.548 -0.731,-6.309 -2.191,-8.281 -1.047,-1.411 -2.396,-2.31 -4.036,-2.71 -0.421,0.417 -0.828,0.848 -1.235,1.277 1.221,0.242 2.17,1.019 2.838,2.347 0.816,1.624 1.225,4.08 1.225,7.367 0,3.277 -0.408,5.728 -1.225,7.353 -0.816,1.624 -2.047,2.436 -3.689,2.436 -1.645,0 -2.874,-0.812 -3.69,-2.436 -0.816,-1.625 -1.225,-4.075 -1.225,-7.353 0,-0.955 0.039,-1.832 0.107,-2.646 -1.211,1.806 -2.306,3.694 -3.296,5.646 0.311,2.132 0.967,3.895 1.988,5.267 1.466,1.972 3.504,2.958 6.115,2.958 z"
   inkscape:connector-curvature="0"
   style="fill:#00A09D" />

	<path
   id="path3054"
   d="m 315.186,345.491 c -2.611,0 -4.649,0.986 -6.115,2.958 -1.467,1.973 -2.199,4.733 -2.199,8.281 0,3.538 0.732,6.294 2.199,8.266 1.466,1.973 3.504,2.959 6.115,2.959 2.62,0 4.661,-0.986 6.123,-2.959 1.46,-1.972 2.191,-4.728 2.191,-8.266 0,-3.548 -0.731,-6.309 -2.191,-8.281 -1.462,-1.971 -3.503,-2.958 -6.123,-2.958 z m 3.689,18.592 c -0.816,1.624 -2.047,2.436 -3.689,2.436 -1.645,0 -2.874,-0.812 -3.69,-2.436 -0.816,-1.625 -1.225,-4.075 -1.225,-7.353 0,-3.287 0.408,-5.743 1.225,-7.367 0.817,-1.624 2.046,-2.437 3.69,-2.437 1.643,0 2.873,0.813 3.689,2.437 0.816,1.624 1.225,4.08 1.225,7.367 0,3.278 -0.409,5.728 -1.225,7.353 z"
   inkscape:connector-curvature="0"
   style="fill:#00A09D" />

	<polygon
   id="polygon3056"
   points="288.389,390.214 300.006,390.214 300.006,388.677 295.816,388.677 295.816,368.171 293.593,368.171 287.728,371.594 287.728,373.493 292.578,370.665 292.578,388.677 288.389,388.677 "
   style="fill:#00A09D" />

	<polygon
   id="polygon3058"
   points="321.002,390.214 321.002,388.677 316.813,388.677 316.813,368.171 314.589,368.171 308.724,371.594 308.724,373.493 313.574,370.665 313.574,388.677 309.385,388.677 309.385,390.214 "
   style="fill:#00A09D" />

	<path
   id="path3060"
   d="m 288.389,412.886 h 0.124 c -0.041,-0.064 -0.084,-0.128 -0.124,-0.193 v 0.193 z"
   inkscape:connector-curvature="0"
   style="fill:#00A09D" />

	<path
   id="path3062"
   d="m 300.006,411.349 h -4.189 v -20.506 h -2.224 l -5.865,3.423 v 1.899 l 4.851,-2.828 v 18.012 h -4.189 v 1.344 c 0.04,0.065 0.083,0.129 0.124,0.193 h 11.493 v -1.537 z"
   inkscape:connector-curvature="0"
   style="fill:#00A09D" />

	<path
   id="path3064"
   d="m 315.186,390.843 c -2.611,0 -4.649,0.986 -6.115,2.958 -1.467,1.973 -2.199,4.733 -2.199,8.281 0,3.538 0.732,6.294 2.199,8.266 1.466,1.973 3.504,2.959 6.115,2.959 2.62,0 4.661,-0.986 6.123,-2.959 1.46,-1.972 2.191,-4.728 2.191,-8.266 0,-3.548 -0.731,-6.309 -2.191,-8.281 -1.462,-1.972 -3.503,-2.958 -6.123,-2.958 z m 3.689,18.592 c -0.816,1.624 -2.047,2.436 -3.689,2.436 -1.645,0 -2.874,-0.812 -3.69,-2.436 -0.816,-1.625 -1.225,-4.075 -1.225,-7.353 0,-3.287 0.408,-5.743 1.225,-7.367 0.817,-1.624 2.046,-2.437 3.69,-2.437 1.643,0 2.873,0.813 3.689,2.437 0.816,1.624 1.225,4.08 1.225,7.367 0,3.277 -0.409,5.728 -1.225,7.353 z"
   inkscape:connector-curvature="0"
   style="fill:#00A09D" />

	<path
   id="path3066"
   d="m 300.313,416.48 c -1.462,-1.972 -3.503,-2.958 -6.123,-2.958 -1.721,0 -3.188,0.438 -4.411,1.294 0.405,0.587 0.814,1.172 1.241,1.742 0.788,-1.061 1.841,-1.601 3.17,-1.601 1.643,0 2.873,0.813 3.689,2.437 0.816,1.624 1.225,4.08 1.225,7.367 0,0.144 -0.005,0.276 -0.007,0.416 1.035,0.891 2.1,1.747 3.2,2.558 0.133,-0.923 0.207,-1.908 0.207,-2.974 0,-3.547 -0.732,-6.308 -2.191,-8.281 z"
   inkscape:connector-curvature="0"
   style="fill:#00A09D" />

	<path
   id="path3068"
   d="m 321.309,433.027 c 1.46,-1.972 2.191,-4.728 2.191,-8.266 0,-3.548 -0.731,-6.309 -2.191,-8.281 -1.462,-1.972 -3.503,-2.958 -6.123,-2.958 -2.611,0 -4.649,0.986 -6.115,2.958 -1.467,1.973 -2.199,4.733 -2.199,8.281 0,2.702 0.431,4.945 1.286,6.733 1.525,0.846 3.096,1.619 4.707,2.317 -0.54,-0.402 -0.999,-0.962 -1.369,-1.698 -0.816,-1.625 -1.225,-4.075 -1.225,-7.353 0,-3.287 0.408,-5.743 1.225,-7.367 0.817,-1.624 2.046,-2.437 3.69,-2.437 1.643,0 2.873,0.813 3.689,2.437 0.816,1.624 1.225,4.08 1.225,7.367 0,3.277 -0.408,5.728 -1.225,7.353 -0.816,1.624 -2.047,2.436 -3.689,2.436 -0.216,0 -0.423,-0.016 -0.624,-0.043 1.025,0.402 2.063,0.779 3.118,1.121 1.457,-0.444 2.67,-1.306 3.629,-2.6 z"
   inkscape:connector-curvature="0"
   style="fill:#00A09D" />

	<path
   id="path3070"
   d="m 329.418,342.316 c 1.466,1.973 3.505,2.959 6.114,2.959 2.621,0 4.662,-0.986 6.123,-2.959 1.461,-1.972 2.191,-4.728 2.191,-8.266 0,-1.142 -0.084,-2.192 -0.235,-3.171 -1.116,-0.193 -2.241,-0.359 -3.379,-0.482 0.141,1.077 0.215,2.289 0.215,3.653 0,3.277 -0.408,5.728 -1.225,7.353 -0.816,1.624 -2.046,2.436 -3.69,2.436 -1.643,0 -2.873,-0.812 -3.689,-2.436 -0.816,-1.625 -1.225,-4.075 -1.225,-7.353 0,-1.45 0.084,-2.729 0.243,-3.855 -1.128,0.071 -2.245,0.182 -3.353,0.321 -0.191,1.076 -0.291,2.252 -0.291,3.534 0.001,3.539 0.734,6.295 2.201,8.266 z"
   inkscape:connector-curvature="0"
   style="fill:#00A09D" />

	<path
   id="path3072"
   d="m 350.413,342.316 c 1.466,1.973 3.504,2.959 6.115,2.959 2.62,0 4.661,-0.986 6.123,-2.959 0.676,-0.913 1.188,-2.002 1.552,-3.251 -0.952,-0.631 -1.929,-1.228 -2.922,-1.799 -0.188,1.715 -0.541,3.097 -1.063,4.137 -0.816,1.624 -2.047,2.436 -3.689,2.436 -1.645,0 -2.874,-0.812 -3.69,-2.436 -0.816,-1.625 -1.225,-4.075 -1.225,-7.353 0,-0.392 0.007,-0.771 0.019,-1.139 -1.09,-0.368 -2.192,-0.707 -3.312,-1.006 -0.066,0.682 -0.106,1.392 -0.106,2.145 -10e-4,3.539 0.731,6.295 2.198,8.266 z"
   inkscape:connector-curvature="0"
   style="fill:#00A09D" />

	<path
   id="path3074"
   d="m 335.532,345.491 c -2.609,0 -4.648,0.986 -6.114,2.958 -1.467,1.973 -2.2,4.733 -2.2,8.281 0,3.538 0.733,6.294 2.2,8.266 1.466,1.973 3.505,2.959 6.114,2.959 2.621,0 4.662,-0.986 6.123,-2.959 1.461,-1.972 2.191,-4.728 2.191,-8.266 0,-3.548 -0.73,-6.309 -2.191,-8.281 -1.461,-1.971 -3.502,-2.958 -6.123,-2.958 z m 3.691,18.592 c -0.816,1.624 -2.046,2.436 -3.69,2.436 -1.643,0 -2.873,-0.812 -3.689,-2.436 -0.816,-1.625 -1.225,-4.075 -1.225,-7.353 0,-3.287 0.408,-5.743 1.225,-7.367 0.817,-1.624 2.047,-2.437 3.689,-2.437 1.645,0 2.874,0.813 3.69,2.437 0.816,1.624 1.225,4.08 1.225,7.367 -10e-4,3.278 -0.409,5.728 -1.225,7.353 z"
   inkscape:connector-curvature="0"
   style="fill:#00A09D" />

	<polygon
   id="polygon3076"
   points="355.932,345.491 350.066,348.914 350.066,350.813 354.917,347.985 354.917,365.997 350.728,365.997 350.728,367.534 362.345,367.534 362.345,365.997 358.155,365.997 358.155,345.491 "
   style="fill:#00A09D" />

	<path
   id="path3078"
   d="m 371.409,348.449 c -1.467,1.973 -2.199,4.733 -2.199,8.281 0,3.538 0.732,6.294 2.199,8.266 1.466,1.973 3.504,2.959 6.115,2.959 2.62,0 4.661,-0.986 6.123,-2.959 0.29,-0.392 0.544,-0.824 0.776,-1.278 -0.626,-1.531 -1.322,-3.025 -2.081,-4.482 -0.162,2.049 -0.536,3.668 -1.129,4.848 -0.816,1.624 -2.047,2.436 -3.689,2.436 -1.645,0 -2.874,-0.812 -3.69,-2.436 -0.816,-1.625 -1.225,-4.075 -1.225,-7.353 0,-3.287 0.408,-5.743 1.225,-7.367 0.243,-0.483 0.528,-0.887 0.845,-1.227 -0.451,-0.505 -0.916,-0.997 -1.386,-1.485 -0.708,0.461 -1.336,1.06 -1.884,1.797 z"
   inkscape:connector-curvature="0"
   style="fill:#00A09D" />

	<path
   id="path3080"
   d="m 335.532,368.171 c -2.609,0 -4.648,0.986 -6.114,2.958 -1.467,1.973 -2.2,4.733 -2.2,8.281 0,3.538 0.733,6.294 2.2,8.266 1.466,1.973 3.505,2.959 6.114,2.959 2.621,0 4.662,-0.986 6.123,-2.959 1.461,-1.972 2.191,-4.728 2.191,-8.266 0,-3.548 -0.73,-6.309 -2.191,-8.281 -1.461,-1.972 -3.502,-2.958 -6.123,-2.958 z m 3.691,18.592 c -0.816,1.624 -2.046,2.436 -3.69,2.436 -1.643,0 -2.873,-0.812 -3.689,-2.436 -0.816,-1.625 -1.225,-4.075 -1.225,-7.353 0,-3.287 0.408,-5.743 1.225,-7.367 0.817,-1.624 2.047,-2.437 3.689,-2.437 1.645,0 2.874,0.813 3.69,2.437 0.816,1.624 1.225,4.08 1.225,7.367 -10e-4,3.278 -0.409,5.728 -1.225,7.353 z"
   inkscape:connector-curvature="0"
   style="fill:#00A09D" />

	<polygon
   id="polygon3082"
   points="355.932,368.171 350.066,371.594 350.066,373.493 354.917,370.665 354.917,388.677 350.728,388.677 350.728,390.214 362.345,390.214 362.345,388.677 358.155,388.677 358.155,368.171 "
   style="fill:#00A09D" />

	<polygon
   id="polygon3084"
   points="376.928,368.171 371.063,371.594 371.063,373.493 375.913,370.665 375.913,388.677 371.724,388.677 371.724,390.214 383.341,390.214 383.341,388.677 379.151,388.677 379.151,368.171 "
   style="fill:#00A09D" />

	<path
   id="path3086"
   d="m 335.532,390.843 c -2.609,0 -4.648,0.986 -6.114,2.958 -1.467,1.973 -2.2,4.733 -2.2,8.281 0,3.538 0.733,6.294 2.2,8.266 1.466,1.973 3.505,2.959 6.114,2.959 2.621,0 4.662,-0.986 6.123,-2.959 1.461,-1.972 2.191,-4.728 2.191,-8.266 0,-3.548 -0.73,-6.309 -2.191,-8.281 -1.461,-1.972 -3.502,-2.958 -6.123,-2.958 z m 3.691,18.592 c -0.816,1.624 -2.046,2.436 -3.69,2.436 -1.643,0 -2.873,-0.812 -3.689,-2.436 -0.816,-1.625 -1.225,-4.075 -1.225,-7.353 0,-3.287 0.408,-5.743 1.225,-7.367 0.817,-1.624 2.047,-2.437 3.689,-2.437 1.645,0 2.874,0.813 3.69,2.437 0.816,1.624 1.225,4.08 1.225,7.367 -10e-4,3.277 -0.409,5.728 -1.225,7.353 z"
   inkscape:connector-curvature="0"
   style="fill:#00A09D" />

	<path
   id="path3088"
   d="m 356.528,390.843 c -2.611,0 -4.649,0.986 -6.115,2.958 -1.467,1.973 -2.199,4.733 -2.199,8.281 0,3.538 0.732,6.294 2.199,8.266 1.466,1.973 3.504,2.959 6.115,2.959 2.62,0 4.661,-0.986 6.123,-2.959 1.46,-1.972 2.191,-4.728 2.191,-8.266 0,-3.548 -0.731,-6.309 -2.191,-8.281 -1.462,-1.972 -3.503,-2.958 -6.123,-2.958 z m 3.69,18.592 c -0.816,1.624 -2.047,2.436 -3.689,2.436 -1.645,0 -2.874,-0.812 -3.69,-2.436 -0.816,-1.625 -1.225,-4.075 -1.225,-7.353 0,-3.287 0.408,-5.743 1.225,-7.367 0.817,-1.624 2.046,-2.437 3.69,-2.437 1.643,0 2.873,0.813 3.689,2.437 0.816,1.624 1.225,4.08 1.225,7.367 -10e-4,3.277 -0.409,5.728 -1.225,7.353 z"
   inkscape:connector-curvature="0"
   style="fill:#00A09D" />

	<path
   id="path3090"
   d="m 379.151,411.349 v -20.506 h -2.224 l -5.865,3.423 v 1.899 l 4.851,-2.828 v 18.012 h -4.189 v 1.537 h 8.446 c 0.318,-0.507 0.627,-1.02 0.929,-1.537 h -1.948 z"
   inkscape:connector-curvature="0"
   style="fill:#00A09D" />

	<path
   id="path3092"
   d="m 335.532,413.522 c -2.609,0 -4.648,0.986 -6.114,2.958 -1.467,1.973 -2.2,4.733 -2.2,8.281 0,3.538 0.733,6.294 2.2,8.266 1.466,1.973 3.505,2.959 6.114,2.959 2.621,0 4.662,-0.986 6.123,-2.959 1.461,-1.972 2.191,-4.728 2.191,-8.266 0,-3.548 -0.73,-6.309 -2.191,-8.281 -1.461,-1.971 -3.502,-2.958 -6.123,-2.958 z m 3.691,18.592 c -0.816,1.624 -2.046,2.436 -3.69,2.436 -1.643,0 -2.873,-0.812 -3.689,-2.436 -0.816,-1.625 -1.225,-4.075 -1.225,-7.353 0,-3.287 0.408,-5.743 1.225,-7.367 0.817,-1.624 2.047,-2.437 3.689,-2.437 1.645,0 2.874,0.813 3.69,2.437 0.816,1.624 1.225,4.08 1.225,7.367 -10e-4,3.278 -0.409,5.728 -1.225,7.353 z"
   inkscape:connector-curvature="0"
   style="fill:#00A09D" />

	<path
   id="path3094"
   d="m 355.932,413.522 -5.865,3.423 v 1.899 l 4.851,-2.828 v 18.012 h -4.189 v 1.537 h 0.457 c 2.401,-0.787 4.73,-1.731 6.971,-2.832 v -19.211 h -2.225 z"
   inkscape:connector-curvature="0"
   style="fill:#00A09D" />

</g>
    </g>
  </g>
</svg>
