<svg xmlns="http://www.w3.org/2000/svg" xmlns:xlink="http://www.w3.org/1999/xlink" width="70" height="70"
     viewBox="0 0 70 70">
    <defs>
        <path id="a" d="M4 0h61c4 0 5 1 5 5v60c0 4-1 5-5 5H4c-3 0-4-1-4-5V5c0-4 1-5 4-5z"/>
        <linearGradient id="c" x1="98.162%" x2="0%" y1="1.838%" y2="100%">
            <stop offset="0%" stop-color="#2b74ed"/>
            <stop offset="50.799%" stop-color="#2765cd"/>
            <stop offset="100%" stop-color="#2157b0"/>
        </linearGradient>
    </defs>
    <g fill="none" fill-rule="evenodd">
        <mask id="b" fill="#fff">
            <use xlink:href="#a"/>
        </mask>
        <g mask="url(#b)">
            <path fill="url(#c)" d="M0 0H70V70H0z"/>
            <path fill="#FFF" fill-opacity=".383" d="M4 1h61c2.667 0 4.333.667 5 2V0H0v3c.667-1.333 2-2 4-2z"/>
            <path fill="#000" fill-opacity=".383" d="M4 69h61c2.667 0 4.333-1 5-3v4H0v-4c.667 2 2 3 4 3z"/>
            <g id="svg_7" opacity=".324">
                <rect transform="rotate(45 37.58936309814453,36.52019500732421) " id="svg_2" height="30.92213"
                      width="27.81277" y="21.05913" x="23.68298" stroke-width="1.33333" fill="#393939"/>
                <rect transform="rotate(45 16.449108123779304,49.688705444335945) " id="svg_1" height="52.18527"
                      width="52.78626" y="23.59607" x="-9.94402" stroke-width="1.33333" fill="#393939"/>
                <rect id="svg_3" height="14.42621" width="19.71284" y="12.90706" x="16.1832" stroke-width="1.33333"
                      fill="#393939"/>
            </g>
            <path stroke="null" fill="#000000" stroke-width="1.33333"
                  d="m28.52313,59.64101c-3.68026,-1.18882 -6.94763,-3.07513 -9.6364,-5.56326l-2.01673,-1.86623l-2.14921,2.35557c-1.18207,1.29558 -2.35764,2.35558 -2.6124,2.35558c-0.25475,0 -0.46319,-4.35375 -0.46319,-9.67502c0,-14.51118 1.46469,-20.14969 6.74252,-25.9563l2.40643,-2.64753l-2.39684,-2.28788l-2.39684,-2.28788l9.89786,-0.15656c14.89448,-0.2356 18.48839,0.60451 24.7983,5.79682l2.99732,2.46643l2.33043,-2.31063l2.33042,-2.31064l0,9.76406l0,9.76406l-9.6688,0l-9.66881,0l2.76853,-2.83215c1.52268,-1.55768 2.76851,-3.08106 2.76851,-3.38527c0,-1.55829 -4.28539,-4.33809 -8.09455,-5.2507l-1.45968,-0.34971l0,3.99996l0,3.99996l-2.73095,-2.91725c-1.50202,-1.60449 -2.97185,-2.91724 -3.26628,-2.91724c-1.09326,0 -4.51997,4.39512 -4.86176,6.23575c-0.19243,1.03625 -0.48084,2.22892 -0.64093,2.65038c-0.23792,0.6264 0.51564,0.76628 4.12814,0.76628l4.4192,0l-3.16813,3.24561l-3.16813,3.24561l2.17753,2.06239c1.61403,1.52869 2.92951,2.22011 5.0834,2.67185c1.59823,0.33521 3.24576,0.50052 3.66117,0.36737c0.41541,-0.13315 1.43279,-0.39273 2.26083,-0.57686c0.82804,-0.18411 2.6343,-1.40143 4.01391,-2.70516l2.50837,-2.3704l4.19458,4.26269l4.19459,4.26268l-2.1044,2.18423c-5.79629,6.01617 -15.32592,8.44583 -23.17801,5.90941zm-5.22844,-25.10658c0.30403,-1.106 0.55412,-2.2724 0.55574,-2.59199c0.00522,-1.0253 4.05098,-5.04949 5.07655,-5.04949c0.54468,0 2.0145,1.01548 3.26628,2.25662l2.27595,2.25663l0,-8.42345l0,-8.42346l-8.33138,0l-8.33139,0l1.6965,1.76833c0.93307,0.97258 1.6965,2.03382 1.6965,2.3583c0,0.32448 -1.01514,1.73536 -2.25586,3.13529c-2.94737,3.32559 -4.46105,6.07884 -5.4397,9.8944c-1.29678,5.05586 -1.49436,4.82975 4.22047,4.82975l5.01756,0l0.55278,-2.01092z"
                  id="svg_6" opacity="0.3"/>
            <path stroke="null" fill="#fff" stroke-width="1.33333"
                  d="m28.52313,57.73255c-3.68026,-1.17673 -6.94763,-3.04384 -9.6364,-5.50666l-2.01673,-1.84725l-2.14921,2.33161c-1.18207,1.28239 -2.35764,2.33162 -2.6124,2.33162c-0.25475,0 -0.46319,-4.30947 -0.46319,-9.57661c0,-14.36357 1.46469,-19.94474 6.74252,-25.69229l2.40644,-2.6206l-2.39684,-2.26461l-2.39684,-2.26461l9.89786,-0.15497c14.89448,-0.2332 18.48839,0.59836 24.7983,5.73786l2.99732,2.44135l2.33043,-2.28714l2.33042,-2.28714l0,9.66475l0,9.66475l-9.6688,0l-9.6688,0l2.76852,-2.80334c1.52269,-1.54184 2.76852,-3.04971 2.76852,-3.35083c0,-1.54244 -4.28539,-4.29398 -8.09456,-5.19729l-1.45968,-0.34615l0,3.95927l0,3.95927l-2.73095,-2.88758c-1.50203,-1.58817 -2.97185,-2.88758 -3.26628,-2.88758c-1.09326,0 -4.51997,4.35043 -4.86176,6.17233c-0.19242,1.02571 -0.48084,2.20624 -0.64092,2.62341c-0.23793,0.62003 0.51564,0.75849 4.12814,0.75849l4.4192,0l-3.16813,3.2126l-3.16813,3.2126l2.17753,2.04141c1.61403,1.51314 2.92951,2.19753 5.0834,2.64467c1.59823,0.33179 3.24575,0.49542 3.66117,0.36362c0.41541,-0.1318 1.43279,-0.38874 2.26083,-0.57098c0.82804,-0.18224 2.6343,-1.38718 4.01391,-2.67764l2.50838,-2.34629l4.19458,4.21933l4.19458,4.21933l-2.1044,2.16201c-5.79629,5.95498 -15.32592,8.35992 -23.17801,5.8493zm-5.22844,-24.8512c0.30403,-1.09476 0.55411,-2.24929 0.55574,-2.56564c0.00522,-1.01487 4.05098,-4.99813 5.07655,-4.99813c0.54468,0 2.01451,1.00515 3.26628,2.23368l2.27595,2.23368l0,-8.33777l0,-8.33777l-8.33138,0l-8.33138,0l1.6965,1.75034c0.93307,0.96268 1.69649,2.01312 1.69649,2.3343c0,0.32118 -1.01514,1.71771 -2.25586,3.10341c-2.94737,3.29175 -4.46104,6.01701 -5.4397,9.79376c-1.29678,5.00442 -1.49436,4.78061 4.22047,4.78061l5.01757,0l0.55278,-1.99046z"
                  id="path9919"/>
        </g>
    </g>
</svg>
